<?xml version="1.0" encoding="UTF-8" standalone="no"?>
<!DOCTYPE svg PUBLIC "-//W3C//DTD SVG 1.1//EN" "http://www.w3.org/Graphics/SVG/1.1/DTD/svg11.dtd">
<svg xmlns="http://www.w3.org/2000/svg" version="1.1" viewBox="0.00 0.00 615.00 710.00">
<g stroke-width="2.00" fill="none" stroke-linecap="butt">
<path stroke="#8e743e" vector-effect="non-scaling-stroke" d="
  M 259.25 637.46
  C 331.40 646.58 411.40 628.67 462.48 573.97
  Q 509.72 523.39 514.59 452.21
  C 518.49 395.21 504.28 339.95 462.46 299.35
  A 0.95 0.93 -58.4 0 1 462.23 298.35
  L 493.71 210.00"
/>
<path stroke="#9c8437" vector-effect="non-scaling-stroke" d="
  M 493.71 210.00
  L 526.08 119.52
  Q 526.25 119.03 525.77 118.84
  Q 494.99 106.69 464.07 94.93
  C 366.80 57.90 241.86 46.51 163.71 131.20
  C 103.95 195.95 89.76 298.83 138.54 374.70
  Q 138.83 375.17 138.68 375.70
  L 81.50 574.04
  A 0.72 0.72 0.0 0 0 81.87 574.89
  Q 109.93 589.16 138.52 602.96
  Q 195.87 630.66 259.25 637.46"
/>
<path stroke="#f1b538" vector-effect="non-scaling-stroke" d="
  M 493.71 210.00
  L 440.33 157.73"
/>
<path stroke="#9c8437" vector-effect="non-scaling-stroke" d="
  M 440.33 157.73
  C 394.57 139.98 342.43 129.11 293.32 135.66
  C 260.17 140.08 232.31 153.62 210.60 179.56
  Q 169.93 228.18 177.96 292.00
  C 182.82 330.63 207.13 361.34 241.32 379.18
  C 264.62 391.34 287.49 396.56 311.76 403.04
  C 333.81 408.92 351.85 420.94 346.16 447.26
  C 341.35 469.52 319.86 480.50 298.49 480.59
  C 277.38 480.68 256.55 475.33 237.04 468.43
  Q 213.71 460.18 187.49 449.59
  Q 186.89 449.35 186.71 449.97
  L 160.69 539.21
  Q 160.55 539.70 161.00 539.95
  L 162.50 540.79"
/>
<path stroke="#f1b538" vector-effect="non-scaling-stroke" d="
  M 162.50 540.79
  Q 162.51 541.69 162.79 541.96
  Q 189.29 568.19 259.10 636.29
  Q 259.17 636.35 259.29 637.02
  Q 259.34 637.24 259.25 637.46"
/>
<path stroke="#8e743e" vector-effect="non-scaling-stroke" d="
  M 440.33 157.73
  L 408.17 246.90
  Q 407.97 247.44 407.44 247.20
  C 381.28 235.53 356.46 225.68 327.25 225.22
  C 300.39 224.79 270.96 239.01 274.67 270.85
  C 276.80 289.11 294.00 295.61 309.70 300.29
  C 341.20 309.68 372.74 316.88 400.24 336.02
  C 422.67 351.64 436.56 373.26 442.46 399.69
  Q 450.38 435.11 442.50 470.00
  C 428.41 532.39 373.54 567.97 312.24 572.22
  C 260.70 575.80 208.90 563.76 162.50 540.79"
/>
</g>
<!--couleur autour du s-->
<path fill="#004982" d="
  M 537.93 286.08
  C 579.96 346.46 590.37 423.86 575.90 494.49
  C 550.05 620.65 437.50 700.57 312.44 705.15
  Q 204.22 709.12 106.79 661.57
  Q 53.88 635.75 1.86 609.54
  A 1.76 1.75 21.5 0 1 0.96 607.49
  L 65.49 383.70
  Q 65.65 383.16 65.41 382.65
  C 19.66 286.27 39.51 170.57 108.85 91.58
  C 208.34 -21.76 364.97 -14.46 493.54 35.38
  Q 551.38 57.80 609.96 80.65
  A 0.84 0.84 0.0 0 1 610.45 81.71
  L 537.76 284.77
  A 1.45 1.45 0.0 0 0 537.93 286.08
  Z
  M 259.25 637.46
  C 331.40 646.58 411.40 628.67 462.48 573.97
  Q 509.72 523.39 514.59 452.21
  C 518.49 395.21 504.28 339.95 462.46 299.35
  A 0.95 0.93 -58.4 0 1 462.23 298.35
  L 493.71 210.00
  L 526.08 119.52
  Q 526.25 119.03 525.77 118.84
  Q 494.99 106.69 464.07 94.93
  C 366.80 57.90 241.86 46.51 163.71 131.20
  C 103.95 195.95 89.76 298.83 138.54 374.70
  Q 138.83 375.17 138.68 375.70
  L 81.50 574.04
  A 0.72 0.72 0.0 0 0 81.87 574.89
  Q 109.93 589.16 138.52 602.96
  Q 195.87 630.66 259.25 637.46
  Z"
/>
<!--couleur a gauche du s-->
<path fill="#ffffff" d="
  M 493.71 210.00
  L 440.33 157.73
  C 394.57 139.98 342.43 129.11 293.32 135.66
  C 260.17 140.08 232.31 153.62 210.60 179.56
  Q 169.93 228.18 177.96 292.00
  C 182.82 330.63 207.13 361.34 241.32 379.18
  C 264.62 391.34 287.49 396.56 311.76 403.04
  C 333.81 408.92 351.85 420.94 346.16 447.26
  C 341.35 469.52 319.86 480.50 298.49 480.59
  C 277.38 480.68 256.55 475.33 237.04 468.43
  Q 213.71 460.18 187.49 449.59
  Q 186.89 449.35 186.71 449.97
  L 160.69 539.21
  Q 160.55 539.70 161.00 539.95
  L 162.50 540.79
  Q 162.51 541.69 162.79 541.96
  Q 189.29 568.19 259.10 636.29
  Q 259.17 636.35 259.29 637.02
  Q 259.34 637.24 259.25 637.46
  Q 195.87 630.66 138.52 602.96
  Q 109.93 589.16 81.87 574.89
  A 0.72 0.72 0.0 0 1 81.50 574.04
  L 138.68 375.70
  Q 138.83 375.17 138.54 374.70
  C 89.76 298.83 103.95 195.95 163.71 131.20
  C 241.86 46.51 366.80 57.90 464.07 94.93
  Q 494.99 106.69 525.77 118.84
  Q 526.25 119.03 526.08 119.52
  L 493.71 210.00
  Z"
/>
<!--couleur du s-->
<path fill="#004982" d="
  M 440.33 157.73
  L 408.17 246.90
  Q 407.97 247.44 407.44 247.20
  C 381.28 235.53 356.46 225.68 327.25 225.22
  C 300.39 224.79 270.96 239.01 274.67 270.85
  C 276.80 289.11 294.00 295.61 309.70 300.29
  C 341.20 309.68 372.74 316.88 400.24 336.02
  C 422.67 351.64 436.56 373.26 442.46 399.69
  Q 450.38 435.11 442.50 470.00
  C 428.41 532.39 373.54 567.97 312.24 572.22
  C 260.70 575.80 208.90 563.76 162.50 540.79
  L 161.00 539.95
  Q 160.55 539.70 160.69 539.21
  L 186.71 449.97
  Q 186.89 449.35 187.49 449.59
  Q 213.71 460.18 237.04 468.43
  C 256.55 475.33 277.38 480.68 298.49 480.59
  C 319.86 480.50 341.35 469.52 346.16 447.26
  C 351.85 420.94 333.81 408.92 311.76 403.04
  C 287.49 396.56 264.62 391.34 241.32 379.18
  C 207.13 361.34 182.82 330.63 177.96 292.00
  Q 169.93 228.18 210.60 179.56
  C 232.31 153.62 260.17 140.08 293.32 135.66
  C 342.43 129.11 394.57 139.98 440.33 157.73
  Z"
/>
<!--couleur a droite du s-->
<!--<path fill="#e3a53f" d="-->
<path fill="#f0f0f0" d="
  M 440.33 157.73
  L 493.71 210.00
  L 462.23 298.35
  A 0.95 0.93 -58.4 0 0 462.46 299.35
  C 504.28 339.95 518.49 395.21 514.59 452.21
  Q 509.72 523.39 462.48 573.97
  C 411.40 628.67 331.40 646.58 259.25 637.46
  Q 259.34 637.24 259.29 637.02
  Q 259.17 636.35 259.10 636.29
  Q 189.29 568.19 162.79 541.96
  Q 162.51 541.69 162.50 540.79
  C 208.90 563.76 260.70 575.80 312.24 572.22
  C 373.54 567.97 428.41 532.39 442.50 470.00
  Q 450.38 435.11 442.46 399.69
  C 436.56 373.26 422.67 351.64 400.24 336.02
  C 372.74 316.88 341.20 309.68 309.70 300.29
  C 294.00 295.61 276.80 289.11 274.67 270.85
  C 270.96 239.01 300.39 224.79 327.25 225.22
  C 356.46 225.68 381.28 235.53 407.44 247.20
  Q 407.97 247.44 408.17 246.90
  L 440.33 157.73
  Z"
/>
</svg>
